<!-- stylelint-disable -->
<svg xmlns="http://www.w3.org/2000/svg">
  <style>:root svg:not(:target) {
      display: none;
    }
  </style>

  <svg id="advantages-triangle" width="100%" height="37" preserveAspectRatio="none" viewBox="0 0 320 37" fill="none">
    <path fill-rule="evenodd" clip-rule="evenodd" d="M-225 0H159V37L-225 0Z" fill="white"/>
    <path fill-rule="evenodd" clip-rule="evenodd" d="M543 0H159V37L543 0Z" fill="white"/>
  </svg>

  <svg id="check-mark-icon" viewBox="0 0 22 16" fill="none">
    <path d="M21.8053 1.30662L20.759 0.22188C20.4736 -0.0739599 19.9029 -0.0739599 19.6176 0.22188L8.29884 11.9569L2.40167 5.84283C2.11633 5.54699 1.54563 5.54699 1.26028 5.84283L0.21401 6.92758C-0.0713367 7.22342 -0.0713367 7.8151 0.21401 8.11094L7.63303 15.8028C7.82326 16 8.01349 16 8.20373 16C8.39396 16 8.58419 15.9014 8.77442 15.8028L21.615 2.48999C22.0906 2.19415 22.0906 1.70108 21.8053 1.30662Z" fill="#333333"/>
  </svg>

  <svg id="icon-burger" viewBox="0 0 80 69" preserveAspectRatio="none" fill="none">
    <path d="M69.0544 46H4.26203C1.96171 46 0.140625 48 0.140625 50.3V53.8C0.140625 56.1 1.96171 58 4.26203 58H5.2205V59C5.2205 64.5 9.5336 68.9 14.7093 68.9H58.6071C63.8786 68.9 68.0959 64.4 68.0959 59V58H69.0544C71.2588 58 73.1758 56.1 73.1758 53.7V50.2C73.1758 48 71.3547 46 69.0544 46ZM65.3163 59C65.3163 62.8 62.3451 65.9 58.7029 65.9H14.6135C10.9713 65.9 8.00005 62.8 8.00005 59V58H65.3163V59ZM70.3004 53.7C70.3004 54.4 69.7253 55 69.0544 55H4.26203C3.5911 55 3.01602 54.4 3.01602 53.7V50.2C3.01602 49.6 3.5911 49 4.26203 49H69.1502C69.8211 49 70.3962 49.6 70.3962 50.3V53.7H70.3004Z" fill="#81B3D2"/>
    <path d="M15.6678 37.9L20.8436 41.9L26.1151 37.9L31.3867 41.9L36.6583 37.9L41.834 41.9L47.1055 37.9L52.3771 41.9L57.6487 37.9L62.9202 41.9L68.9586 37.2L67.3292 34.8L62.9202 38.1L57.6487 34.1L52.3771 38.1L47.1055 34.1L41.834 38.1L36.6583 34.1L31.3867 38.1L26.1151 34.1L20.8436 38.1L15.6678 34.1L10.3963 38.1L5.98732 34.8L4.26208 37.2L10.3963 41.9L15.6678 37.9Z" fill="#81B3D2"/>
    <path d="M68.0958 31.1C68.0958 30.5 68.1916 28.5 68.0958 28.1C67.4248 12.5 53.6229 0 36.6581 0C19.6932 0 5.79544 12.5 5.12451 28.1C5.12451 28.5 5.12451 30.5 5.12451 31.1H68.0958ZM36.6581 3C51.9935 3 64.6453 14.2 65.2204 28.1H7.99991C8.67084 14.2 21.3226 3 36.6581 3Z" fill="#81B3D2"/>
    <path d="M36.6581 17C37.7168 17 38.5751 16.1046 38.5751 15C38.5751 13.8954 37.7168 13 36.6581 13C35.5995 13 34.7412 13.8954 34.7412 15C34.7412 16.1046 35.5995 17 36.6581 17Z" fill="#81B3D2"/>
    <path d="M28.9904 12.1C30.0491 12.1 30.9074 11.2045 30.9074 10.1C30.9074 8.99541 30.0491 8.09998 28.9904 8.09998C27.9317 8.09998 27.0735 8.99541 27.0735 10.1C27.0735 11.2045 27.9317 12.1 28.9904 12.1Z" fill="#81B3D2"/>
    <path d="M44.3259 12.1C45.3846 12.1 46.2428 11.2045 46.2428 10.1C46.2428 8.99541 45.3846 8.09998 44.3259 8.09998C43.2672 8.09998 42.4089 8.99541 42.4089 10.1C42.4089 11.2045 43.2672 12.1 44.3259 12.1Z" fill="#81B3D2"/>
  </svg>

  <svg id="icon-gift" viewBox="0 0 77 76" preserveAspectRatio="none" fill="none">
    <path d="M74.4427 22.1237H74.3197H44.4427C61.164 15.3237 62.5164 11.0237 61.9017 8.62371C60.5492 4.72371 55.0164 1.72371 49.8525 3.32371C43.0902 5.42371 41.2459 13.6237 39.4017 19.5237C37.0656 13.5237 34.8525 5.92371 29.5656 2.02371C28.0902 0.923705 25.8771 -0.176294 22.5574 0.0237057C17.6394 0.423706 10.6312 5.32371 13.582 10.8237C16.2869 16.1237 25.2623 19.5237 31.2869 22.2237H3.86889C1.90168 22.2237 0.42627 23.5237 0.42627 25.0237V36.2237C0.42627 37.8237 2.02463 39.0237 3.86889 39.0237H4.23774V75.0237H74.3197V39.0237H74.4427C76.4099 39.0237 77.8853 37.7237 77.8853 36.2237V25.0237C77.8853 23.4237 76.2869 22.1237 74.4427 22.1237ZM51.8197 5.82371C54.4017 5.52371 57.8443 7.12371 58.2132 9.02371C58.705 11.7237 54.1558 14.2237 52.0656 15.3237C48.9918 17.0237 46.041 17.9237 43.2132 19.3237C44.1968 15.6237 46.2869 6.42371 51.8197 5.82371ZM24.0328 15.6237C21.3279 14.1237 16.164 11.2237 16.2869 7.92371C16.4099 4.32371 23.2951 1.42371 26.9836 4.12371C31.6558 7.42371 33.8689 15.1237 35.5902 20.5237C31.6558 18.9237 27.9673 17.7237 24.0328 15.6237ZM31.2869 72.0237H7.80332V39.0237H31.2869V72.0237ZM31.2869 36.0237H4.11479V25.1237H31.2869V36.0237ZM43.582 72.0237H34.8525V25.1237H43.582V72.0237ZM70.6312 72.0237H47.2705V39.0237H70.7541V72.0237H70.6312ZM74.1968 36.0237H47.2705V25.1237H74.1968V36.0237Z" fill="#81B3D2"/>
  </svg>

  <svg id="icon-house" viewBox="0 0 81 73" fill="none">
    <path d="M31.9574 65.3H48.9787V41.4H31.9574V65.3ZM45.8936 62.4H35.0425V44.3H45.7872V62.4H45.8936Z" fill="#81B3D2"/>
    <path d="M77.8085 39.4L80.0425 37.3L69.5106 27.4V0.4H54.8298V13.6L40.2553 0L0.574463 37.4L2.80851 39.5L11.1064 31.7V69.5H6.95744V72.4H74.9362V69.5H69.5106V31.6L77.8085 39.4ZM57.9149 3.4H66.3191V24.5L57.9149 16.6V3.4ZM66.4255 69.4H14.2979V28.7L40.2553 4.2L66.3191 28.7V69.4H66.4255Z" fill="#81B3D2"/>
    <path d="M32.2766 27.2C32.2766 31.5 36 35 40.4681 35C45.0426 35 48.766 31.5 48.766 27.2C48.766 22.9 45.0426 19.5 40.4681 19.5C35.8936 19.5 32.2766 22.9 32.2766 27.2ZM40.4681 22.2C43.3404 22.2 45.7873 24.4 45.7873 27.2C45.7873 29.9 43.4468 32.2 40.4681 32.2C37.5958 32.2 35.149 30 35.149 27.2C35.149 24.5 37.5958 22.2 40.4681 22.2Z" fill="#81B3D2"/>
    <path d="M21.7447 41.4H18.5532V45.3H21.7447V41.4Z" fill="#81B3D2"/>
    <path d="M28.0213 41.4H24.8298V45.3H28.0213V41.4Z" fill="#81B3D2"/>
    <path d="M21.7447 47.4H18.5532V51.3H21.7447V47.4Z" fill="#81B3D2"/>
    <path d="M28.0213 47.4H24.8298V51.3H28.0213V47.4Z" fill="#81B3D2"/>
    <path d="M55.6809 41.4H52.4894V45.3H55.6809V41.4Z" fill="#81B3D2"/>
    <path d="M62.0639 41.4H58.8724V45.3H62.0639V41.4Z" fill="#81B3D2"/>
    <path d="M55.6809 47.4H52.4894V51.3H55.6809V47.4Z" fill="#81B3D2"/>
    <path d="M62.0639 47.4H58.8724V51.3H62.0639V47.4Z" fill="#81B3D2"/>
  </svg>

  <svg id="index-hero-zigzag" viewBox="0 0 1200 57" fill="none">
    <path d="M249.6 23.7L0 0V57H249.6H600L249.6 0V23.7Z" fill="white"/>
    <path d="M950.4 23.7V0L600 57H950.4H1199.9V0L950.4 23.7Z" fill="white"/>
  </svg>

  <svg id="like-icon" viewBox="0 0 23 21" fill="none">
    <path d="M12.9636 3.78L12.3364 6.825L11.7091 9.45H14.3227H20.8045V11.55C20.8045 11.55 20.8045 11.55 20.8045 11.655L17.7727 18.9H8.36364V8.4L12.9636 3.78ZM2.09091 10.5V18.9V10.5ZM13.8 0L6.9 6.93C6.48182 7.245 6.27273 7.77 6.27273 8.4V18.9C6.27273 20.055 7.21364 21 8.36364 21H17.7727C18.6091 21 19.3409 20.475 19.6545 19.74L22.7909 12.285C22.8955 12.075 22.8955 11.76 22.8955 11.55V9.45H23C23 8.295 22.0591 7.35 20.9091 7.35H14.3227L15.3682 2.52V2.205C15.3682 1.785 15.1591 1.365 14.95 1.05L13.8 0ZM4.18182 8.4H0V21H4.18182V8.4Z" fill="black"/>
  </svg>

  <svg id="mail-icon" width="100%" height="58" viewBox="0 0 58 58" preserveAspectRatio="xMaxYMid" fill="none">
    <rect width="58" height="58" fill="#E6E6E6"/>
    <path d="M29 31C28.7 31 28.5 30.9 28 30.7L21 27V34C21 34.5 21.5 35 22 35H36C36.5 35 37 34.5 37 34V27L30 30.7C29.5 30.9 29.3 31 29 31ZM36 23H22C21.5 23 21 23.5 21 24V24.8L29 29L37 24.8V24C37 23.5 36.5 23 36 23Z" fill="black"/>
  </svg>

  <svg id="map-marker" viewBox="0 0 27 27" fill="none">
    <path d="M13.5 27C20.9558 27 27 20.9558 27 13.5C27 6.04416 20.9558 0 13.5 0C6.04416 0 0 6.04416 0 13.5C0 20.9558 6.04416 27 13.5 27Z" fill="white"/>
    <path d="M13.5 21.8996C18.1392 21.8996 21.9 18.1388 21.9 13.4996C21.9 8.86042 18.1392 5.09961 13.5 5.09961C8.86078 5.09961 5.09998 8.86042 5.09998 13.4996C5.09998 18.1388 8.86078 21.8996 13.5 21.8996Z" fill="#81B3D3"/>
  </svg>

  <svg id="phone-icon" width="100%" height="58" viewBox="0 0 58 58" preserveAspectRatio="xMaxYMid" fill="none">
    <rect width="58" height="58" fill="#E6E6E6"/>
    <path d="M23.6 27.8C25 30.6 27.4 32.9 30.2 34.4L32.4 32.2C32.7 31.9 33.1 31.8 33.4 32C34.5 32.4 35.7 32.6 37 32.6C37.6 32.6 38 33 38 33.6V37C38 37.6 37.6 38 37 38C27.6 38 20 30.4 20 21C20 20.4 20.4 20 21 20H24.5C25.1 20 25.5 20.4 25.5 21C25.5 22.2 25.7 23.4 26.1 24.6C26.2 24.9 26.1 25.3 25.9 25.6L23.6 27.8Z" fill="#010101"/>
  </svg>

  <svg id="telegram" viewBox="0 0 24 24" fill="none">
    <path d="M22.4393 4.62225L19.2705 19.566C19.0313 20.6205 18.408 20.883 17.5223 20.3865L12.6938 16.8285L10.3643 19.0695C10.1063 19.3275 9.891 19.5428 9.39375 19.5428L9.741 14.6258L18.6893 6.54C19.0785 6.1935 18.6045 6.00075 18.0848 6.348L7.02225 13.314L2.25976 11.823C1.22401 11.4998 1.20526 10.7873 2.47576 10.29L21.1035 3.11325C21.966 2.79 22.7205 3.30525 22.4393 4.623V4.62225Z" fill="white"/>
  </svg>

  <svg id="vk" viewBox="0 0 24 24" fill="none">
    <g clip-path="url(#clip0_75366_69)">
    <path fill-rule="evenodd" clip-rule="evenodd" d="M23.45 5.948C23.616 5.402 23.45 5 22.655 5H20.03C19.362 5 19.054 5.347 18.887 5.73C18.887 5.73 17.552 8.926 15.661 11.002C15.049 11.604 14.771 11.795 14.437 11.795C14.27 11.795 14.019 11.604 14.019 11.057V5.948C14.019 5.292 13.835 5 13.279 5H9.151C8.734 5 8.483 5.304 8.483 5.593C8.483 6.214 9.429 6.358 9.526 8.106V11.904C9.526 12.737 9.373 12.888 9.039 12.888C8.149 12.888 5.984 9.677 4.699 6.003C4.45 5.288 4.198 5 3.527 5H0.9C0.15 5 0 5.347 0 5.73C0 6.412 0.89 9.8 4.145 14.281C6.315 17.341 9.37 19 12.153 19C13.822 19 14.028 18.632 14.028 17.997V15.684C14.028 14.947 14.186 14.8 14.715 14.8C15.105 14.8 15.772 14.992 17.33 16.467C19.11 18.216 19.403 19 20.405 19H23.03C23.78 19 24.156 18.632 23.94 17.904C23.702 17.18 22.852 16.129 21.725 14.882C21.113 14.172 20.195 13.407 19.916 13.024C19.527 12.533 19.638 12.314 19.916 11.877C19.916 11.877 23.116 7.451 23.449 5.948H23.45Z" fill="white"/>
    </g>
    <defs>
    <clipPath id="clip0_75366_69">
    <rect width="24" height="24" fill="white"/>
    </clipPath>
    </defs>
  </svg>

  <svg id="youtube" viewBox="0 0 24 24" fill="none">
    <path d="M19.1813 5H4.81331C3.30618 5 2 6.3 2 7.8V16.1C2 17.7 3.30618 19 4.81331 19H19.1813C20.7889 19 21.9946 17.7 21.9946 16.2V7.8C22.095 6.3 20.7889 5 19.1813 5ZM9.03326 15.4V8.6L15.8656 12L9.03326 15.4Z" fill="white"/>
  </svg>
</svg>
